<svg width="308" height="40" viewBox="0 0 308 40" fill="none" xmlns="http://www.w3.org/2000/svg">
<path d="M10.872 5.73599C15.256 5.73599 18.664 6.64799 21.096 8.47199C23.528 10.296 24.744 13 24.744 16.584C24.744 20.328 23.544 23.16 21.144 25.08C18.776 26.968 15.592 27.912 11.592 27.912H7.992V39H0.119995V5.73599H10.872ZM10.92 22.248C12.776 22.248 14.184 21.816 15.144 20.952C16.136 20.056 16.632 18.6 16.632 16.584C16.632 13.096 14.68 11.352 10.776 11.352H7.992V22.248H10.92Z" fill="#141414"/>
<path d="M46.5289 31.608C46.5289 32.568 46.6569 33.272 46.9129 33.72C47.2009 34.168 47.6489 34.504 48.2569 34.728L46.6729 39.672C45.1049 39.544 43.8249 39.208 42.8329 38.664C41.8409 38.088 41.0729 37.192 40.5289 35.976C38.8649 38.536 36.3049 39.816 32.8489 39.816C30.3209 39.816 28.3049 39.08 26.8009 37.608C25.2969 36.136 24.5449 34.216 24.5449 31.848C24.5449 29.064 25.5689 26.936 27.6169 25.464C29.6649 23.992 32.6249 23.256 36.4969 23.256H39.0889V22.152C39.0889 20.648 38.7689 19.624 38.1289 19.08C37.4889 18.504 36.3689 18.216 34.7689 18.216C33.9369 18.216 32.9289 18.344 31.7449 18.6C30.5609 18.824 29.3449 19.144 28.0969 19.56L26.3689 14.568C27.9689 13.96 29.6009 13.496 31.2649 13.176C32.9609 12.856 34.5289 12.696 35.9689 12.696C39.6169 12.696 42.2889 13.448 43.9849 14.952C45.6809 16.456 46.5289 18.712 46.5289 21.72V31.608ZM35.0569 34.392C36.7849 34.392 38.1289 33.576 39.0889 31.944V27.432H37.2169C35.4889 27.432 34.1929 27.736 33.3289 28.344C32.4969 28.952 32.0809 29.896 32.0809 31.176C32.0809 32.2 32.3369 33 32.8489 33.576C33.3929 34.12 34.1289 34.392 35.0569 34.392Z" fill="#141414"/>
<path d="M74.0737 39H67.4977L67.1617 35.784C65.3057 38.472 62.7297 39.816 59.4337 39.816C57.0977 39.816 55.3217 39.112 54.1057 37.704C52.9217 36.296 52.3297 34.328 52.3297 31.8V13.512H59.9137V30.84C59.9137 32.088 60.1057 32.968 60.4897 33.48C60.9057 33.96 61.5297 34.2 62.3617 34.2C63.9617 34.2 65.3377 33.208 66.4897 31.224V13.512H74.0737V39Z" fill="#141414"/>
<path d="M86.8065 39.816C84.5985 39.816 82.8705 39.192 81.6225 37.944C80.4065 36.664 79.7985 34.856 79.7985 32.52V3.38399L87.3825 2.56799V32.232C87.3825 33.288 87.8145 33.816 88.6785 33.816C89.1265 33.816 89.5425 33.736 89.9265 33.576L91.4145 38.952C90.0385 39.528 88.5025 39.816 86.8065 39.816Z" fill="#141414"/>
<path d="M105.094 12.696C108.998 12.696 112.054 13.896 114.262 16.296C116.47 18.664 117.574 21.992 117.574 26.28C117.574 29 117.062 31.384 116.038 33.432C115.046 35.448 113.606 37.016 111.718 38.136C109.862 39.256 107.654 39.816 105.094 39.816C101.222 39.816 98.1661 38.632 95.9261 36.264C93.7181 33.864 92.6141 30.52 92.6141 26.232C92.6141 23.512 93.1101 21.144 94.1021 19.128C95.1261 17.08 96.5661 15.496 98.4221 14.376C100.31 13.256 102.534 12.696 105.094 12.696ZM105.094 18.264C103.558 18.264 102.406 18.92 101.638 20.232C100.87 21.512 100.486 23.512 100.486 26.232C100.486 29.016 100.854 31.048 101.59 32.328C102.358 33.608 103.526 34.248 105.094 34.248C106.63 34.248 107.782 33.608 108.55 32.328C109.318 31.016 109.702 29 109.702 26.28C109.702 23.496 109.318 21.464 108.55 20.184C107.814 18.904 106.662 18.264 105.094 18.264Z" fill="#141414"/>
<path d="M151.14 39L149.412 31.848H139.716L138.036 39H129.876L139.908 5.73599H149.46L159.492 39H151.14ZM141.06 26.136H148.068L144.564 11.448L141.06 26.136Z" fill="#141414"/>
<path d="M168.556 39.816C166.348 39.816 164.62 39.192 163.372 37.944C162.156 36.664 161.548 34.856 161.548 32.52V3.38399L169.132 2.56799V32.232C169.132 33.288 169.564 33.816 170.428 33.816C170.876 33.816 171.292 33.736 171.676 33.576L173.164 38.952C171.788 39.528 170.252 39.816 168.556 39.816Z" fill="#141414"/>
<path d="M204.214 12.696C206.23 12.696 207.846 13.384 209.062 14.76C210.278 16.104 210.886 17.976 210.886 20.376V39H203.302V21.672C203.302 19.4 202.583 18.264 201.143 18.264C200.343 18.264 199.639 18.536 199.031 19.08C198.423 19.624 197.831 20.456 197.255 21.576V39H189.671V21.672C189.671 19.4 188.95 18.264 187.51 18.264C186.742 18.264 186.038 18.552 185.398 19.128C184.79 19.672 184.198 20.488 183.622 21.576V39H176.038V13.512H182.662L183.19 16.488C184.182 15.208 185.27 14.264 186.454 13.656C187.67 13.016 189.046 12.696 190.582 12.696C192.022 12.696 193.255 13.048 194.279 13.752C195.335 14.456 196.102 15.448 196.582 16.728C197.606 15.352 198.726 14.344 199.942 13.704C201.19 13.032 202.614 12.696 204.214 12.696Z" fill="#141414"/>
<path d="M238.809 25.752C238.809 26.808 238.761 27.72 238.665 28.488H222.873C223.129 30.632 223.737 32.136 224.697 33C225.657 33.864 226.985 34.296 228.681 34.296C229.705 34.296 230.697 34.12 231.657 33.768C232.617 33.384 233.657 32.808 234.777 32.04L237.897 36.264C234.921 38.632 231.609 39.816 227.961 39.816C223.833 39.816 220.665 38.6 218.457 36.168C216.249 33.736 215.145 30.472 215.145 26.376C215.145 23.784 215.609 21.464 216.537 19.416C217.465 17.336 218.825 15.704 220.617 14.52C222.409 13.304 224.553 12.696 227.049 12.696C230.729 12.696 233.609 13.848 235.689 16.152C237.769 18.456 238.809 21.656 238.809 25.752ZM231.369 23.592C231.305 19.688 229.929 17.736 227.241 17.736C225.929 17.736 224.905 18.216 224.169 19.176C223.465 20.136 223.033 21.72 222.873 23.928H231.369V23.592Z" fill="#141414"/>
<path d="M250.654 13.512V39H243.07V13.512H250.654ZM246.814 0.071991C248.126 0.071991 249.198 0.487991 250.03 1.31999C250.894 2.11999 251.326 3.14399 251.326 4.39199C251.326 5.63999 250.894 6.67999 250.03 7.51199C249.198 8.31199 248.126 8.71199 246.814 8.71199C245.502 8.71199 244.43 8.31199 243.598 7.51199C242.766 6.67999 242.35 5.63999 242.35 4.39199C242.35 3.14399 242.766 2.11999 243.598 1.31999C244.43 0.487991 245.502 0.071991 246.814 0.071991Z" fill="#141414"/>
<path d="M279.465 3.38399V39H272.745L272.361 36.024C270.569 38.552 268.153 39.816 265.113 39.816C261.945 39.816 259.529 38.6 257.865 36.168C256.233 33.736 255.417 30.408 255.417 26.184C255.417 23.592 255.849 21.272 256.713 19.224C257.577 17.176 258.793 15.576 260.361 14.424C261.961 13.272 263.785 12.696 265.833 12.696C268.265 12.696 270.281 13.496 271.881 15.096V2.56799L279.465 3.38399ZM267.465 34.248C269.225 34.248 270.697 33.288 271.881 31.368V20.376C271.273 19.64 270.649 19.096 270.009 18.744C269.401 18.392 268.697 18.216 267.897 18.216C266.489 18.216 265.369 18.872 264.537 20.184C263.705 21.496 263.289 23.512 263.289 26.232C263.289 29.208 263.641 31.288 264.345 32.472C265.081 33.656 266.121 34.248 267.465 34.248Z" fill="#141414"/>
<path d="M305.654 31.608C305.654 32.568 305.782 33.272 306.038 33.72C306.326 34.168 306.774 34.504 307.382 34.728L305.798 39.672C304.23 39.544 302.95 39.208 301.958 38.664C300.966 38.088 300.198 37.192 299.654 35.976C297.99 38.536 295.43 39.816 291.974 39.816C289.446 39.816 287.43 39.08 285.926 37.608C284.422 36.136 283.67 34.216 283.67 31.848C283.67 29.064 284.694 26.936 286.742 25.464C288.79 23.992 291.75 23.256 295.622 23.256H298.214V22.152C298.214 20.648 297.894 19.624 297.254 19.08C296.614 18.504 295.494 18.216 293.894 18.216C293.062 18.216 292.054 18.344 290.87 18.6C289.686 18.824 288.47 19.144 287.222 19.56L285.494 14.568C287.094 13.96 288.726 13.496 290.39 13.176C292.086 12.856 293.654 12.696 295.094 12.696C298.742 12.696 301.414 13.448 303.11 14.952C304.806 16.456 305.654 18.712 305.654 21.72V31.608ZM294.182 34.392C295.91 34.392 297.254 33.576 298.214 31.944V27.432H296.342C294.614 27.432 293.318 27.736 292.454 28.344C291.622 28.952 291.206 29.896 291.206 31.176C291.206 32.2 291.462 33 291.974 33.576C292.518 34.12 293.254 34.392 294.182 34.392Z" fill="#141414"/>
</svg>
